<svg width="46" height="46" viewBox="0 0 46 46" fill="none" xmlns="http://www.w3.org/2000/svg">
<circle cx="23.2586" cy="23.1257" r="22.4949" fill="black"/>
<path d="M17.19 33.0418C19.0977 33.0418 20.3007 32.2341 20.696 30.8935H20.8335V32.87H23.2395V27.8172C23.2395 25.5658 21.8818 24.0878 19.0117 24.0878C16.176 24.0878 14.3887 25.5658 14.3887 27.6969V27.7485H16.9838V27.6797C16.9838 26.7001 17.5165 26.3564 18.8227 26.3564C20.1976 26.3564 20.696 26.6657 20.696 27.7828V28.1094L17.001 28.4875C15.162 28.6765 14.2168 29.4671 14.2168 30.7389C14.2168 32.1825 15.3339 33.0418 17.19 33.0418ZM16.8119 30.567C16.8119 30.1545 17.0869 29.9827 17.7056 29.9311L20.696 29.5874C20.6272 30.8076 19.682 31.2201 17.929 31.2201C17.1728 31.2201 16.8119 31.031 16.8119 30.567Z" fill="white"/>
<path d="M28.3004 13.6384C28.3004 15.0327 27.17 16.1631 25.7757 16.1631C24.3813 16.1631 23.251 15.0327 23.251 13.6384C23.251 12.244 24.3813 11.1137 25.7757 11.1137C27.17 11.1137 28.3004 12.244 28.3004 13.6384Z" fill="white"/>
<path d="M23.2505 17.2609H28.3005V32.87H23.2505V17.2609Z" fill="white"/>
</svg>
