<svg width="146" height="65" viewBox="0 0 146 65" fill="none" xmlns="http://www.w3.org/2000/svg">
<path d="M48.6899 46.2336C51.8539 46.2336 54.0659 44.8336 54.7939 42.4816H54.9899V45.9536H57.7619V37.4976C57.7619 34.1656 55.7739 31.7576 51.3499 31.7576C46.9259 31.7576 44.2939 34.1376 44.2939 37.3016V37.4136H47.2899V37.3016C47.2899 35.2576 48.5499 34.4176 51.1259 34.4176C53.7859 34.4176 54.7939 35.2296 54.7939 37.5256V38.3376L48.4659 39.0096C45.7219 39.3176 43.9859 40.4376 43.9859 42.5936C43.9859 44.8896 45.8059 46.2336 48.6899 46.2336ZM47.0099 42.3976C47.0099 41.3056 47.7659 40.9416 49.3339 40.7456L54.7939 40.1296C54.7939 42.8736 52.6659 44.0496 49.5019 44.0496C47.7659 44.0496 47.0099 43.5176 47.0099 42.3976ZM66.5933 46.2336C69.7293 46.2336 71.7733 44.7216 72.3613 41.9496H72.5573V45.9536H75.3293V27.1936H72.3053V35.8176H72.1373C71.5773 33.4656 69.7013 31.7576 66.3973 31.7576C62.1693 31.7576 59.7613 34.6696 59.7613 39.0096C59.7613 43.2936 62.1973 46.2336 66.5933 46.2336ZM62.8133 39.0096C62.8133 35.6496 64.5493 34.5016 67.4613 34.5016C70.5693 34.5016 72.3053 35.9576 72.3053 38.9256V39.1496C72.3053 42.0616 70.4853 43.4616 67.5173 43.4616C64.5213 43.4616 62.8133 42.3416 62.8133 39.0096ZM85.1253 46.2336C89.2693 46.2336 92.1813 44.1896 92.1813 41.2216V40.9696H89.1573V41.1936C89.1573 42.8456 87.9533 43.7976 85.0413 43.7976C81.8213 43.7976 80.5053 42.3696 80.3933 39.6816H92.2093C92.2933 39.2616 92.3213 38.8696 92.3213 38.3656C92.3213 34.1376 89.3813 31.7576 85.0693 31.7576C80.5333 31.7576 77.5653 34.6696 77.5653 39.0096C77.5653 43.6576 80.5613 46.2336 85.1253 46.2336ZM85.0133 34.1376C87.9813 34.1376 89.4653 35.3696 89.4653 37.9456V38.0016H80.4213C80.5893 35.5096 81.9333 34.1376 85.0133 34.1376ZM97.6103 45.9536V39.2056C97.6103 36.2656 98.7863 34.4736 102.09 34.4736C104.974 34.4736 106.234 35.5936 106.234 38.3936V45.9536H109.23V37.6656C109.23 34.2776 107.354 31.7576 103.518 31.7576C99.9623 31.7576 98.2543 33.9416 97.7783 36.2936H97.6103V27.1936H94.5863V45.9536H97.6103ZM117.746 46.2336C121.33 46.2336 123.178 43.9936 123.626 41.6416H123.794V45.9536H126.566V32.0376H123.57V38.9256C123.57 41.9496 122.142 43.5176 119.062 43.5176C116.122 43.5176 114.918 42.2016 114.918 39.5976V32.0376H111.922V40.4096C111.922 43.6296 113.826 46.2336 117.746 46.2336ZM132.337 45.9536V39.0656C132.337 36.0416 133.709 34.4736 136.761 34.4736C139.645 34.4736 140.821 35.7896 140.821 38.3936V45.9536H143.845V37.5816C143.845 34.3616 141.941 31.7576 138.077 31.7576C134.549 31.7576 132.701 33.9976 132.281 36.3496H132.085V32.0376H129.313V45.9536H132.337Z" fill="black"/>
<rect x="0.957764" y="0.0859375" width="31.1289" height="45.7177" fill="black"/>
<path d="M10.1359 46.2336C13.2439 46.2336 15.2039 44.9176 15.8479 42.7336H16.0719V45.9536H19.9919V37.7216C19.9919 34.0536 17.7799 31.6456 13.1039 31.6456C8.48386 31.6456 5.57186 34.0536 5.57186 37.5256V37.6096H9.79986V37.4976C9.79986 35.9016 10.6679 35.3416 12.7959 35.3416C15.0359 35.3416 15.8479 35.8456 15.8479 37.6656V38.1976L9.82786 38.8136C6.83186 39.1216 5.29186 40.4096 5.29186 42.4816C5.29186 44.8336 7.11186 46.2336 10.1359 46.2336ZM9.51986 42.2016C9.51986 41.5296 9.96786 41.2496 10.9759 41.1656L15.8479 40.6056C15.7359 42.5936 14.1959 43.2656 11.3399 43.2656C10.1079 43.2656 9.51986 42.9576 9.51986 42.2016Z" fill="white"/>
<circle cx="24.1238" cy="14.6211" r="4.11328" fill="white"/>
<rect x="20.0098" y="20.5229" width="8.22743" height="25.4305" fill="white"/>
</svg>
