<svg width="46" height="46" viewBox="0 0 46 46" fill="none" xmlns="http://www.w3.org/2000/svg">
<circle cx="23.3758" cy="23.1257" r="22.4949" fill="url(#paint0_linear_681_733)"/>
<path d="M17.3072 33.0418C19.2149 33.0418 20.4179 32.2341 20.8132 30.8935H20.9507V32.87H23.3567V27.8172C23.3567 25.5658 21.999 24.0878 19.1289 24.0878C16.2932 24.0878 14.5058 25.5658 14.5058 27.6969V27.7485H17.101V27.6797C17.101 26.7001 17.6337 26.3564 18.9399 26.3564C20.3148 26.3564 20.8132 26.6657 20.8132 27.7828V28.1094L17.1181 28.4875C15.2792 28.6765 14.334 29.4671 14.334 30.7389C14.334 32.1825 15.4511 33.0418 17.3072 33.0418ZM16.9291 30.567C16.9291 30.1545 17.2041 29.9827 17.8228 29.9311L20.8132 29.5874C20.7444 30.8076 19.7992 31.2201 18.0462 31.2201C17.29 31.2201 16.9291 31.031 16.9291 30.567Z" fill="white"/>
<path d="M28.4176 13.6384C28.4176 15.0327 27.2872 16.1631 25.8929 16.1631C24.4985 16.1631 23.3682 15.0327 23.3682 13.6384C23.3682 12.244 24.4985 11.1137 25.8929 11.1137C27.2872 11.1137 28.4176 12.244 28.4176 13.6384Z" fill="white"/>
<path d="M23.3677 17.2609H28.4177V32.87H23.3677V17.2609Z" fill="white"/>
<defs>
<linearGradient id="paint0_linear_681_733" x1="23.3758" y1="0.630798" x2="23.3758" y2="45.6206" gradientUnits="userSpaceOnUse">
<stop stop-color="#110D3B"/>
<stop offset="0.453119" stop-color="#381052"/>
<stop offset="1" stop-color="#68136E"/>
</linearGradient>
</defs>
</svg>
