<svg width="32" height="65" viewBox="0 0 32 65" fill="none" xmlns="http://www.w3.org/2000/svg">
<rect x="0.665527" y="0.0537109" width="31.1289" height="45.7177" fill="white"/>
<path d="M9.84362 46.2014C12.9516 46.2014 14.9116 44.8854 15.5556 42.7014H15.7796V45.9214H19.6996V37.6894C19.6996 34.0214 17.4876 31.6134 12.8116 31.6134C8.19162 31.6134 5.27962 34.0214 5.27962 37.4934V37.5774H9.50762V37.4654C9.50762 35.8694 10.3756 35.3094 12.5036 35.3094C14.7436 35.3094 15.5556 35.8134 15.5556 37.6334V38.1654L9.53562 38.7814C6.53962 39.0894 4.99962 40.3774 4.99962 42.4494C4.99962 44.8014 6.81962 46.2014 9.84362 46.2014ZM9.22762 42.1694C9.22762 41.4974 9.67562 41.2174 10.6836 41.1334L15.5556 40.5734C15.4436 42.5614 13.9036 43.2334 11.0476 43.2334C9.81562 43.2334 9.22762 42.9254 9.22762 42.1694Z" fill="black"/>
<circle cx="23.8315" cy="14.5889" r="4.11328" fill="black"/>
<rect x="19.7178" y="20.4907" width="8.22743" height="25.4305" fill="black"/>
</svg>
