<svg width="145" height="66" viewBox="0 0 145 66" fill="none" xmlns="http://www.w3.org/2000/svg">
<path d="M48.0183 47.0542C51.1823 47.0542 53.3943 45.6542 54.1223 43.3022H54.3183V46.7742H57.0903V38.3182C57.0903 34.9862 55.1023 32.5782 50.6783 32.5782C46.2543 32.5782 43.6223 34.9582 43.6223 38.1222V38.2342H46.6183V38.1222C46.6183 36.0782 47.8783 35.2382 50.4543 35.2382C53.1143 35.2382 54.1223 36.0502 54.1223 38.3462V39.1582L47.7943 39.8302C45.0503 40.1382 43.3143 41.2582 43.3143 43.4142C43.3143 45.7102 45.1343 47.0542 48.0183 47.0542ZM46.3383 43.2182C46.3383 42.1262 47.0943 41.7622 48.6623 41.5662L54.1223 40.9502C54.1223 43.6942 51.9943 44.8702 48.8303 44.8702C47.0943 44.8702 46.3383 44.3382 46.3383 43.2182ZM65.9216 47.0542C69.0576 47.0542 71.1016 45.5422 71.6896 42.7702H71.8856V46.7742H74.6576V28.0142H71.6336V36.6382H71.4656C70.9056 34.2862 69.0296 32.5782 65.7256 32.5782C61.4976 32.5782 59.0896 35.4902 59.0896 39.8302C59.0896 44.1142 61.5256 47.0542 65.9216 47.0542ZM62.1416 39.8302C62.1416 36.4702 63.8776 35.3222 66.7896 35.3222C69.8976 35.3222 71.6336 36.7782 71.6336 39.7462V39.9702C71.6336 42.8822 69.8136 44.2822 66.8456 44.2822C63.8496 44.2822 62.1416 43.1622 62.1416 39.8302ZM84.4537 47.0542C88.5977 47.0542 91.5097 45.0102 91.5097 42.0422V41.7902H88.4857V42.0142C88.4857 43.6662 87.2817 44.6182 84.3697 44.6182C81.1497 44.6182 79.8337 43.1902 79.7217 40.5022H91.5377C91.6217 40.0822 91.6497 39.6902 91.6497 39.1862C91.6497 34.9582 88.7097 32.5782 84.3977 32.5782C79.8617 32.5782 76.8937 35.4902 76.8937 39.8302C76.8937 44.4782 79.8897 47.0542 84.4537 47.0542ZM84.3417 34.9582C87.3097 34.9582 88.7937 36.1902 88.7937 38.7662V38.8222H79.7497C79.9177 36.3302 81.2617 34.9582 84.3417 34.9582ZM96.9386 46.7742V40.0262C96.9386 37.0862 98.1146 35.2942 101.419 35.2942C104.303 35.2942 105.563 36.4142 105.563 39.2142V46.7742H108.559V38.4862C108.559 35.0982 106.683 32.5782 102.847 32.5782C99.2906 32.5782 97.5826 34.7622 97.1066 37.1142H96.9386V28.0142H93.9146V46.7742H96.9386ZM117.074 47.0542C120.658 47.0542 122.506 44.8142 122.954 42.4622H123.122V46.7742H125.894V32.8582H122.898V39.7462C122.898 42.7702 121.47 44.3382 118.39 44.3382C115.45 44.3382 114.246 43.0222 114.246 40.4182V32.8582H111.25V41.2302C111.25 44.4502 113.154 47.0542 117.074 47.0542ZM131.665 46.7742V39.8862C131.665 36.8622 133.037 35.2942 136.089 35.2942C138.973 35.2942 140.149 36.6102 140.149 39.2142V46.7742H143.173V38.4022C143.173 35.1822 141.269 32.5782 137.405 32.5782C133.877 32.5782 132.029 34.8182 131.609 37.1702H131.413V32.8582H128.641V46.7742H131.665Z" fill="white"/>
<rect x="0.286133" y="0.906494" width="31.1289" height="45.9109" fill="white"/>
<path d="M9.46423 47.0542C12.5722 47.0542 14.5322 45.7382 15.1762 43.5542H15.4002V46.7742H19.3202V38.5422C19.3202 34.8742 17.1082 32.4662 12.4322 32.4662C7.81223 32.4662 4.90023 34.8742 4.90023 38.3462V38.4302H9.12823V38.3182C9.12823 36.7222 9.99623 36.1622 12.1242 36.1622C14.3642 36.1622 15.1762 36.6662 15.1762 38.4862V39.0182L9.15623 39.6342C6.16023 39.9422 4.62023 41.2302 4.62023 43.3022C4.62023 45.6542 6.44023 47.0542 9.46423 47.0542ZM8.84823 43.0222C8.84823 42.3502 9.29623 42.0702 10.3042 41.9862L15.1762 41.4262C15.0642 43.4142 13.5242 44.0862 10.6682 44.0862C9.43623 44.0862 8.84823 43.7782 8.84823 43.0222Z" fill="#201455"/>
<circle cx="23.4521" cy="15.4419" r="4.11328" fill="#201455"/>
<rect x="19.3379" y="21.3438" width="8.22743" height="25.4305" fill="#201455"/>
</svg>
