<svg width="1441" height="1080" viewBox="0 0 1441 1080" fill="none" xmlns="http://www.w3.org/2000/svg">
<rect x="0.93457" y="115.443" width="1439.46" height="791.11" fill="white"/>
<rect x="0.93457" y="115.289" width="1439.31" height="791.263" fill="url(#paint0_linear_210_47)"/>
<g filter="url(#filter0_f_210_47)">
<path d="M691.747 829.35C729.729 829.35 767.34 821.869 802.431 807.334C837.522 792.799 869.407 771.494 896.264 744.636C923.122 717.779 944.427 685.894 958.962 650.803C973.497 615.711 980.979 578.101 980.979 540.118C980.979 502.136 973.497 464.525 958.962 429.434C944.427 394.343 923.122 362.458 896.264 335.601C869.407 308.743 837.522 287.438 802.431 272.903C767.34 258.368 729.729 250.886 691.747 250.886L691.747 540.118L691.747 829.35Z" fill="#68136E"/>
</g>
<defs>
<filter id="filter0_f_210_47" x="441.747" y="0.886475" width="789.232" height="1078.46" filterUnits="userSpaceOnUse" color-interpolation-filters="sRGB">
<feFlood flood-opacity="0" result="BackgroundImageFix"/>
<feBlend mode="normal" in="SourceGraphic" in2="BackgroundImageFix" result="shape"/>
<feGaussianBlur stdDeviation="125" result="effect1_foregroundBlur_210_47"/>
</filter>
<linearGradient id="paint0_linear_210_47" x1="-263.572" y1="-387.027" x2="-335.369" y2="742.601" gradientUnits="userSpaceOnUse">
<stop stop-color="#301B71"/>
<stop offset="1" stop-color="#110D3B"/>
</linearGradient>
</defs>
</svg>
