<svg width="428" height="911" viewBox="0 0 428 911" fill="none" xmlns="http://www.w3.org/2000/svg">
<g clip-path="url(#clip0_192_111)">
<rect width="428" height="910.99" fill="url(#paint0_linear_192_111)"/>
<g filter="url(#filter0_f_192_111)">
<path d="M428.679 127.706C365.391 127.706 304.696 152.847 259.945 197.598C215.194 242.349 190.053 303.044 190.053 366.332C190.053 429.619 215.194 490.315 259.945 535.066C304.696 579.817 365.391 604.957 428.679 604.957L428.679 366.332L428.679 127.706Z" fill="#68136E"/>
</g>
<g style="mix-blend-mode:screen">
<circle cx="247.621" cy="287.452" r="179.879" stroke="#6C5DD3" stroke-opacity="0.6"/>
<path d="M366.471 269.956C366.471 359.604 288.283 432.339 191.755 432.339C95.2263 432.339 17.0381 359.604 17.0381 269.956C17.0381 180.308 95.2263 107.573 191.755 107.573C288.283 107.573 366.471 180.308 366.471 269.956Z" stroke="#301B71" stroke-opacity="0.4"/>
<path d="M345.267 248.369C345.267 339.174 268.111 412.826 172.884 412.826C77.6564 412.826 0.5 339.174 0.5 248.369C0.5 157.564 77.6564 83.9119 172.884 83.9119C268.111 83.9119 345.267 157.564 345.267 248.369Z" stroke="#301B71" stroke-opacity="0.2"/>
</g>
</g>
<defs>
<filter id="filter0_f_192_111" x="-59.9468" y="-122.294" width="738.625" height="977.251" filterUnits="userSpaceOnUse" color-interpolation-filters="sRGB">
<feFlood flood-opacity="0" result="BackgroundImageFix"/>
<feBlend mode="normal" in="SourceGraphic" in2="BackgroundImageFix" result="shape"/>
<feGaussianBlur stdDeviation="125" result="effect1_foregroundBlur_192_111"/>
</filter>
<linearGradient id="paint0_linear_192_111" x1="6.37855e-07" y1="39.0529" x2="308.696" y2="815.097" gradientUnits="userSpaceOnUse">
<stop stop-color="#301B71"/>
<stop offset="1" stop-color="#110D3B"/>
</linearGradient>
<clipPath id="clip0_192_111">
<rect width="428" height="910.99" fill="white"/>
</clipPath>
</defs>
</svg>
