<svg width="74" height="74" viewBox="0 0 74 74" fill="none" xmlns="http://www.w3.org/2000/svg">
<circle cx="37.0649" cy="36.82" r="36.4335" fill="#68136E"/>
<path d="M38.581 38.394L31.8504 42.4805C31.7889 42.5179 31.712 42.5193 31.6491 42.4841L18.5027 35.1411C18.3711 35.0676 18.365 34.8803 18.4917 34.7985L39.8208 21.0186C39.8835 20.9781 39.9635 20.9758 40.0284 21.0128L53.5255 28.7086C53.6594 28.7849 53.6603 28.9777 53.5271 29.0552L47.1189 32.7835" stroke="white" stroke-width="0.7" stroke-linecap="round"/>
<path d="M32.1172 26.6852L44.463 34.3106C44.522 34.347 44.5579 34.4114 44.5579 34.4808V44.5019C44.5579 44.5718 44.5214 44.6367 44.4616 44.6729L40.8367 46.8698C40.7034 46.9506 40.533 46.8547 40.533 46.6988V37.0477C40.533 36.9753 40.4939 36.9086 40.4308 36.8732L27.4824 29.6124" stroke="white" stroke-width="0.7" stroke-linecap="round"/>
<path d="M42.4849 35.7108L44.4363 34.3691" stroke="white" stroke-width="0.7" stroke-linecap="round"/>
<path d="M47.1646 36.1804C49.3936 34.8164 53.8518 32.0883 53.8518 32.0883" stroke="white" stroke-width="0.7" stroke-linecap="round"/>
<path d="M46.9038 43.1048L53.9308 38.6331" stroke="white" stroke-width="0.7" stroke-linecap="round"/>
<path d="M46.9038 39.7689L54.0019 35.2261" stroke="white" stroke-width="0.7" stroke-linecap="round"/>
<path d="M38.5273 41.6852L31.9547 45.7407C31.8932 45.7786 31.8161 45.7805 31.7529 45.7456L17.73 37.9943" stroke="white" stroke-width="0.7" stroke-linecap="round"/>
<path d="M17.5884 41.2594L31.4022 49.0121C31.4633 49.0463 31.5378 49.0462 31.5987 49.0116L38.3856 45.1633" stroke="white" stroke-width="0.7" stroke-linecap="round"/>
<path d="M17.5884 44.6666L31.5415 52.6298C31.6039 52.6654 31.6806 52.6648 31.7425 52.6282L38.5985 48.5705" stroke="white" stroke-width="0.7" stroke-linecap="round"/>
</svg>
