<svg width="32" height="38" viewBox="0 0 32 38" fill="none" xmlns="http://www.w3.org/2000/svg">
<path d="M31.7789 16.7087C31.7789 12.54 30.1229 8.54203 27.1752 5.59432C24.2275 2.64661 20.2295 0.990601 16.0609 0.990601C11.8922 0.990601 7.89421 2.64661 4.94649 5.59432C1.99878 8.54203 0.342774 12.54 0.342773 16.7087L16.0609 16.7087H31.7789Z" fill="#6C5DD3" fill-opacity="0.4"/>
<path d="M28.1334 25.2199C28.1334 22.0179 26.8614 18.9471 24.5973 16.683C22.3332 14.4188 19.2623 13.1469 16.0604 13.1469C12.8584 13.1469 9.78756 14.4188 7.52342 16.683C5.25928 18.9471 3.98731 22.0179 3.9873 25.2199L16.0604 25.2199H28.1334Z" fill="#6C5DD3"/>
</svg>
