<svg width="46" height="46" viewBox="0 0 46 46" fill="none" xmlns="http://www.w3.org/2000/svg">
<circle cx="23.0242" cy="23.1257" r="22.4949" fill="white"/>
<path d="M16.9556 33.0418C18.8633 33.0418 20.0663 32.2341 20.4616 30.8935H20.5991V32.87H23.0052V27.8172C23.0052 25.5658 21.6475 24.0878 18.7774 24.0878C15.9416 24.0878 14.1543 25.5658 14.1543 27.6969V27.7485H16.7494V27.6797C16.7494 26.7001 17.2822 26.3564 18.5883 26.3564C19.9632 26.3564 20.4616 26.6657 20.4616 27.7828V28.1094L16.7666 28.4875C14.9277 28.6765 13.9824 29.4671 13.9824 30.7389C13.9824 32.1825 15.0995 33.0418 16.9556 33.0418ZM16.5775 30.567C16.5775 30.1545 16.8525 29.9827 17.4712 29.9311L20.4616 29.5874C20.3929 30.8076 19.4476 31.2201 17.6946 31.2201C16.9384 31.2201 16.5775 31.031 16.5775 30.567Z" fill="black"/>
<path d="M28.066 13.6384C28.066 15.0327 26.9357 16.1631 25.5413 16.1631C24.147 16.1631 23.0166 15.0327 23.0166 13.6384C23.0166 12.244 24.147 11.1137 25.5413 11.1137C26.9357 11.1137 28.066 12.244 28.066 13.6384Z" fill="black"/>
<path d="M23.0162 17.2609H28.0661V32.87H23.0162V17.2609Z" fill="black"/>
</svg>
