<svg width="74" height="74" viewBox="0 0 74 74" fill="none" xmlns="http://www.w3.org/2000/svg">
<circle cx="36.6523" cy="36.82" r="36.4335" fill="#6C5DD3"/>
<path d="M36.8018 47.4088H29.1904C28.0859 47.4088 27.1904 46.5134 27.1904 45.4088V24.7092C27.1904 23.6047 28.0859 22.7092 29.1904 22.7092H41.8638C42.3942 22.7092 42.9029 22.9199 43.278 23.295L46.2402 26.2572C46.6153 26.6323 46.826 27.141 46.826 27.6715V44.3084" stroke="white" stroke-width="0.9" stroke-linecap="round"/>
<path d="M42.749 23.1127V26.4016C42.749 26.6778 42.9729 26.9016 43.249 26.9016H46.6583" stroke="white" stroke-width="0.9" stroke-linecap="round"/>
<path d="M44.6206 42.726V45.2269C44.6206 45.3416 44.5211 45.4326 44.4065 45.4271C38.0064 45.121 35.8118 47.0939 34.8782 53.9128C34.8485 54.1303 35.1551 54.2344 35.2746 54.0503C38.1218 49.6664 41.571 50.7319 44.4031 50.5533C44.5203 50.546 44.6206 50.638 44.6206 50.7554V52.2368C44.6206 52.4131 44.8322 52.5032 44.9592 52.3809L49.7432 47.7793C49.825 47.7006 49.825 47.5697 49.7432 47.491L44.6206 42.5636" stroke="white" stroke-width="0.9" stroke-linecap="round"/>
<path d="M26.8853 25.4989H25.4116C24.8593 25.4989 24.4116 25.9466 24.4116 26.4989V48.9646C24.4116 49.5169 24.8593 49.9646 25.4116 49.9646H35.4989" stroke="white" stroke-width="0.9" stroke-linecap="round"/>
<path d="M32.0381 29.7142H41.6704" stroke="white" stroke-width="0.9" stroke-linecap="round"/>
<path d="M32.0381 33.8146H41.6704" stroke="white" stroke-width="0.9" stroke-linecap="round"/>
<path d="M32.0381 37.9149H41.6704" stroke="white" stroke-width="0.9" stroke-linecap="round"/>
<path d="M32.0381 42.0153H41.6704" stroke="white" stroke-width="0.9" stroke-linecap="round"/>
</svg>
