<svg width="46" height="46" viewBox="0 0 46 46" fill="none" xmlns="http://www.w3.org/2000/svg">
<circle cx="23.1414" cy="23.1257" r="22.4949" fill="white"/>
<path d="M17.0728 33.0418C18.9805 33.0418 20.1835 32.2341 20.5788 30.8935H20.7163V32.87H23.1224V27.8172C23.1224 25.5658 21.7647 24.0878 18.8946 24.0878C16.0588 24.0878 14.2715 25.5658 14.2715 27.6969V27.7485H16.8666V27.6797C16.8666 26.7001 17.3994 26.3564 18.7055 26.3564C20.0804 26.3564 20.5788 26.6657 20.5788 27.7828V28.1094L16.8838 28.4875C15.0448 28.6765 14.0996 29.4671 14.0996 30.7389C14.0996 32.1825 15.2167 33.0418 17.0728 33.0418ZM16.6947 30.567C16.6947 30.1545 16.9697 29.9827 17.5884 29.9311L20.5788 29.5874C20.5101 30.8076 19.5648 31.2201 17.8118 31.2201C17.0556 31.2201 16.6947 31.031 16.6947 30.567Z" fill="url(#paint0_linear_681_731)"/>
<path d="M28.1832 13.6384C28.1832 15.0327 27.0529 16.1631 25.6585 16.1631C24.2641 16.1631 23.1338 15.0327 23.1338 13.6384C23.1338 12.244 24.2641 11.1137 25.6585 11.1137C27.0529 11.1137 28.1832 12.244 28.1832 13.6384Z" fill="url(#paint1_linear_681_731)"/>
<path d="M23.1334 17.2609H28.1833V32.87H23.1334V17.2609Z" fill="url(#paint2_linear_681_731)"/>
<defs>
<linearGradient id="paint0_linear_681_731" x1="21.1414" y1="11.1137" x2="21.1414" y2="33.0418" gradientUnits="userSpaceOnUse">
<stop stop-color="#160D3E"/>
<stop offset="1" stop-color="#63126B"/>
</linearGradient>
<linearGradient id="paint1_linear_681_731" x1="21.1414" y1="11.1137" x2="21.1414" y2="33.0418" gradientUnits="userSpaceOnUse">
<stop stop-color="#160D3E"/>
<stop offset="1" stop-color="#63126B"/>
</linearGradient>
<linearGradient id="paint2_linear_681_731" x1="21.1414" y1="11.1137" x2="21.1414" y2="33.0418" gradientUnits="userSpaceOnUse">
<stop stop-color="#160D3E"/>
<stop offset="1" stop-color="#63126B"/>
</linearGradient>
</defs>
</svg>
